<mxfile host="app.diagrams.net" modified="2023-09-22T09:23:48.808Z" agent="Mozilla/5.0 (Windows NT 10.0; Win64; x64) AppleWebKit/537.36 (KHTML, like Gecko) Chrome/116.0.0.0 Safari/537.36" etag="SAcyj-XYW6n3CNUJ4Bhw" version="21.7.5" type="github">
  <diagram name="Страница — 1" id="iNld8wYBHNFczWK-KUSU">
    <mxGraphModel dx="2856" dy="1663" grid="1" gridSize="16" guides="1" tooltips="1" connect="1" arrows="1" fold="1" page="1" pageScale="1" pageWidth="1169" pageHeight="827" background="#00ffee" math="0" shadow="1">
      <root>
        <mxCell id="0" />
        <mxCell id="1" parent="0" />
        <mxCell id="mk_YrIzJI_6ENqU5XBet-40" style="edgeStyle=orthogonalEdgeStyle;rounded=0;orthogonalLoop=1;jettySize=auto;html=1;exitX=1;exitY=0.5;exitDx=0;exitDy=0;" parent="1" source="mk_YrIzJI_6ENqU5XBet-1" target="mk_YrIzJI_6ENqU5XBet-41" edge="1">
          <mxGeometry relative="1" as="geometry">
            <mxPoint x="278" y="-237" as="targetPoint" />
          </mxGeometry>
        </mxCell>
        <mxCell id="mk_YrIzJI_6ENqU5XBet-114" style="edgeStyle=orthogonalEdgeStyle;rounded=0;orthogonalLoop=1;jettySize=auto;html=1;entryX=0.5;entryY=0;entryDx=0;entryDy=0;" parent="1" source="mk_YrIzJI_6ENqU5XBet-1" target="mk_YrIzJI_6ENqU5XBet-35" edge="1">
          <mxGeometry relative="1" as="geometry" />
        </mxCell>
        <mxCell id="yCtnSM6kdCkITJ4L6hRp-15" value="" style="edgeStyle=orthogonalEdgeStyle;rounded=0;orthogonalLoop=1;jettySize=auto;html=1;" parent="1" source="mk_YrIzJI_6ENqU5XBet-1" target="yCtnSM6kdCkITJ4L6hRp-14" edge="1">
          <mxGeometry relative="1" as="geometry" />
        </mxCell>
        <mxCell id="yCtnSM6kdCkITJ4L6hRp-16" style="edgeStyle=orthogonalEdgeStyle;rounded=0;orthogonalLoop=1;jettySize=auto;html=1;exitX=1;exitY=0;exitDx=0;exitDy=0;" parent="1" source="mk_YrIzJI_6ENqU5XBet-1" target="yCtnSM6kdCkITJ4L6hRp-17" edge="1">
          <mxGeometry relative="1" as="geometry">
            <mxPoint x="384" y="-282" as="targetPoint" />
          </mxGeometry>
        </mxCell>
        <mxCell id="yCtnSM6kdCkITJ4L6hRp-21" style="edgeStyle=orthogonalEdgeStyle;rounded=0;orthogonalLoop=1;jettySize=auto;html=1;exitX=0;exitY=0;exitDx=0;exitDy=0;" parent="1" source="mk_YrIzJI_6ENqU5XBet-1" target="yCtnSM6kdCkITJ4L6hRp-22" edge="1">
          <mxGeometry relative="1" as="geometry">
            <mxPoint x="-64" y="-266" as="targetPoint" />
          </mxGeometry>
        </mxCell>
        <mxCell id="enOVVRFEu1GshkFp2Plu-15" style="edgeStyle=orthogonalEdgeStyle;rounded=0;sketch=1;hachureGap=4;jiggle=2;curveFitting=1;orthogonalLoop=1;jettySize=auto;html=1;exitX=0.75;exitY=1;exitDx=0;exitDy=0;fontFamily=Architects Daughter;fontSource=https%3A%2F%2Ffonts.googleapis.com%2Fcss%3Ffamily%3DArchitects%2BDaughter;fontSize=16;" parent="1" source="mk_YrIzJI_6ENqU5XBet-1" target="enOVVRFEu1GshkFp2Plu-16" edge="1">
          <mxGeometry relative="1" as="geometry">
            <mxPoint x="288" y="-74" as="targetPoint" />
          </mxGeometry>
        </mxCell>
        <mxCell id="enOVVRFEu1GshkFp2Plu-34" style="edgeStyle=orthogonalEdgeStyle;rounded=0;sketch=1;hachureGap=4;jiggle=2;curveFitting=1;orthogonalLoop=1;jettySize=auto;html=1;exitX=0.25;exitY=1;exitDx=0;exitDy=0;fontFamily=Architects Daughter;fontSource=https%3A%2F%2Ffonts.googleapis.com%2Fcss%3Ffamily%3DArchitects%2BDaughter;fontSize=16;" parent="1" source="mk_YrIzJI_6ENqU5XBet-1" edge="1">
          <mxGeometry relative="1" as="geometry">
            <mxPoint x="48" y="-80" as="targetPoint" />
          </mxGeometry>
        </mxCell>
        <mxCell id="mk_YrIzJI_6ENqU5XBet-1" value="&lt;font style=&quot;font-size: 20px;&quot;&gt;Документ&lt;br&gt;(Презентация)&lt;br&gt;(Объект)&lt;br&gt;&lt;/font&gt;" style="rounded=0;whiteSpace=wrap;html=1;fillColor=#d5e8d4;strokeColor=#82b366;" parent="1" vertex="1">
          <mxGeometry x="86.5" y="-205" width="144" height="83" as="geometry" />
        </mxCell>
        <mxCell id="mk_YrIzJI_6ENqU5XBet-55" style="edgeStyle=orthogonalEdgeStyle;rounded=0;orthogonalLoop=1;jettySize=auto;html=1;exitX=0.5;exitY=1;exitDx=0;exitDy=0;" parent="1" source="mk_YrIzJI_6ENqU5XBet-2" target="mk_YrIzJI_6ENqU5XBet-43" edge="1">
          <mxGeometry relative="1" as="geometry">
            <Array as="points">
              <mxPoint x="164" y="309" />
            </Array>
          </mxGeometry>
        </mxCell>
        <mxCell id="enOVVRFEu1GshkFp2Plu-6" style="edgeStyle=orthogonalEdgeStyle;rounded=0;sketch=1;hachureGap=4;jiggle=2;curveFitting=1;orthogonalLoop=1;jettySize=auto;html=1;exitX=0.75;exitY=1;exitDx=0;exitDy=0;entryX=-0.001;entryY=0.534;entryDx=0;entryDy=0;entryPerimeter=0;fontFamily=Architects Daughter;fontSource=https%3A%2F%2Ffonts.googleapis.com%2Fcss%3Ffamily%3DArchitects%2BDaughter;fontSize=16;" parent="1" source="mk_YrIzJI_6ENqU5XBet-2" target="enOVVRFEu1GshkFp2Plu-5" edge="1">
          <mxGeometry relative="1" as="geometry" />
        </mxCell>
        <mxCell id="mk_YrIzJI_6ENqU5XBet-2" value="&lt;font style=&quot;font-size: 19px;&quot;&gt;Слайд&lt;/font&gt;" style="whiteSpace=wrap;html=1;rounded=0;fillColor=#e1d5e7;strokeColor=#9673a6;" parent="1" vertex="1">
          <mxGeometry x="106" y="249" width="120" height="60" as="geometry" />
        </mxCell>
        <mxCell id="mk_YrIzJI_6ENqU5XBet-6" value="&lt;font style=&quot;font-size: 13px;&quot;&gt;Текст&lt;br&gt;(Объект)&lt;br&gt;&lt;/font&gt;" style="whiteSpace=wrap;html=1;rounded=0;fillColor=#fff2cc;strokeColor=#d6b656;" parent="1" vertex="1">
          <mxGeometry x="480" y="470.5" width="93.94" height="83" as="geometry" />
        </mxCell>
        <mxCell id="enOVVRFEu1GshkFp2Plu-96" style="edgeStyle=orthogonalEdgeStyle;rounded=0;sketch=1;hachureGap=4;jiggle=2;curveFitting=1;orthogonalLoop=1;jettySize=auto;html=1;entryX=0.5;entryY=0;entryDx=0;entryDy=0;fontFamily=Architects Daughter;fontSource=https%3A%2F%2Ffonts.googleapis.com%2Fcss%3Ffamily%3DArchitects%2BDaughter;fontSize=16;" parent="1" source="mk_YrIzJI_6ENqU5XBet-22" target="enOVVRFEu1GshkFp2Plu-22" edge="1">
          <mxGeometry relative="1" as="geometry" />
        </mxCell>
        <mxCell id="mk_YrIzJI_6ENqU5XBet-22" value="&lt;font style=&quot;font-size: 16px;&quot;&gt;Примитивы&lt;br&gt;(Объект)&lt;br&gt;&lt;/font&gt;" style="rounded=0;whiteSpace=wrap;html=1;fillColor=#fff2cc;strokeColor=#d6b656;" parent="1" vertex="1">
          <mxGeometry x="-318" y="476" width="120" height="60" as="geometry" />
        </mxCell>
        <mxCell id="mk_YrIzJI_6ENqU5XBet-112" style="edgeStyle=orthogonalEdgeStyle;rounded=0;orthogonalLoop=1;jettySize=auto;html=1;entryX=0.45;entryY=0.006;entryDx=0;entryDy=0;entryPerimeter=0;" parent="1" source="mk_YrIzJI_6ENqU5XBet-35" target="mk_YrIzJI_6ENqU5XBet-2" edge="1">
          <mxGeometry relative="1" as="geometry">
            <Array as="points">
              <mxPoint x="160" y="160" />
              <mxPoint x="160" y="160" />
            </Array>
          </mxGeometry>
        </mxCell>
        <mxCell id="mk_YrIzJI_6ENqU5XBet-35" value="&lt;font style=&quot;&quot;&gt;&lt;font style=&quot;font-size: 16px;&quot;&gt;Список слайдов&lt;/font&gt;&lt;br&gt;&lt;/font&gt;" style="rounded=0;whiteSpace=wrap;html=1;fillColor=#e1d5e7;strokeColor=#9673a6;" parent="1" vertex="1">
          <mxGeometry x="98.5" y="70" width="120" height="60" as="geometry" />
        </mxCell>
        <mxCell id="enOVVRFEu1GshkFp2Plu-23" value="" style="edgeStyle=orthogonalEdgeStyle;rounded=0;sketch=1;hachureGap=4;jiggle=2;curveFitting=1;orthogonalLoop=1;jettySize=auto;html=1;fontFamily=Architects Daughter;fontSource=https%3A%2F%2Ffonts.googleapis.com%2Fcss%3Ffamily%3DArchitects%2BDaughter;fontSize=16;" parent="1" target="enOVVRFEu1GshkFp2Plu-22" edge="1">
          <mxGeometry relative="1" as="geometry">
            <mxPoint x="-258" y="735.5" as="sourcePoint" />
          </mxGeometry>
        </mxCell>
        <mxCell id="enOVVRFEu1GshkFp2Plu-24" style="edgeStyle=orthogonalEdgeStyle;rounded=0;sketch=1;hachureGap=4;jiggle=2;curveFitting=1;orthogonalLoop=1;jettySize=auto;html=1;fontFamily=Architects Daughter;fontSource=https%3A%2F%2Ffonts.googleapis.com%2Fcss%3Ffamily%3DArchitects%2BDaughter;fontSize=16;" parent="1" edge="1">
          <mxGeometry relative="1" as="geometry">
            <mxPoint x="-64" y="785" as="targetPoint" />
            <mxPoint x="-256" y="737" as="sourcePoint" />
          </mxGeometry>
        </mxCell>
        <mxCell id="enOVVRFEu1GshkFp2Plu-27" style="edgeStyle=orthogonalEdgeStyle;rounded=0;sketch=1;hachureGap=4;jiggle=2;curveFitting=1;orthogonalLoop=1;jettySize=auto;html=1;fontFamily=Architects Daughter;fontSource=https%3A%2F%2Ffonts.googleapis.com%2Fcss%3Ffamily%3DArchitects%2BDaughter;fontSize=16;" parent="1" edge="1">
          <mxGeometry relative="1" as="geometry">
            <mxPoint x="-448" y="785" as="targetPoint" />
            <mxPoint x="-256" y="737" as="sourcePoint" />
          </mxGeometry>
        </mxCell>
        <mxCell id="mk_YrIzJI_6ENqU5XBet-41" value="&lt;font style=&quot;font-size: 14px;&quot;&gt;История действий&lt;/font&gt;" style="rounded=0;whiteSpace=wrap;html=1;fillColor=#d5e8d4;strokeColor=#82b366;" parent="1" vertex="1">
          <mxGeometry x="345" y="-193.5" width="120" height="60" as="geometry" />
        </mxCell>
        <mxCell id="mk_YrIzJI_6ENqU5XBet-50" style="edgeStyle=orthogonalEdgeStyle;rounded=0;orthogonalLoop=1;jettySize=auto;html=1;exitX=0;exitY=0;exitDx=0;exitDy=0;" parent="1" source="mk_YrIzJI_6ENqU5XBet-43" target="mk_YrIzJI_6ENqU5XBet-54" edge="1">
          <mxGeometry relative="1" as="geometry">
            <mxPoint x="-16" y="285" as="targetPoint" />
            <Array as="points">
              <mxPoint x="128" y="482" />
              <mxPoint x="128" y="442" />
              <mxPoint x="-192" y="442" />
            </Array>
          </mxGeometry>
        </mxCell>
        <mxCell id="mk_YrIzJI_6ENqU5XBet-52" style="edgeStyle=orthogonalEdgeStyle;rounded=0;orthogonalLoop=1;jettySize=auto;html=1;exitX=0;exitY=0.5;exitDx=0;exitDy=0;" parent="1" source="mk_YrIzJI_6ENqU5XBet-43" target="mk_YrIzJI_6ENqU5XBet-22" edge="1">
          <mxGeometry relative="1" as="geometry">
            <Array as="points">
              <mxPoint x="112" y="512" />
              <mxPoint x="112" y="506" />
            </Array>
          </mxGeometry>
        </mxCell>
        <mxCell id="enOVVRFEu1GshkFp2Plu-4" style="edgeStyle=orthogonalEdgeStyle;rounded=0;sketch=1;hachureGap=4;jiggle=2;curveFitting=1;orthogonalLoop=1;jettySize=auto;html=1;fontFamily=Architects Daughter;fontSource=https%3A%2F%2Ffonts.googleapis.com%2Fcss%3Ffamily%3DArchitects%2BDaughter;fontSize=16;" parent="1" source="mk_YrIzJI_6ENqU5XBet-43" target="mk_YrIzJI_6ENqU5XBet-6" edge="1">
          <mxGeometry relative="1" as="geometry" />
        </mxCell>
        <mxCell id="mk_YrIzJI_6ENqU5XBet-43" value="&lt;font style=&quot;font-size: 16px;&quot;&gt;Объект&lt;/font&gt;" style="rounded=0;whiteSpace=wrap;html=1;fillColor=#d5e8d4;strokeColor=#82b366;" parent="1" vertex="1">
          <mxGeometry x="104.00470588235316" y="482" width="120" height="60" as="geometry" />
        </mxCell>
        <mxCell id="enOVVRFEu1GshkFp2Plu-55" style="edgeStyle=orthogonalEdgeStyle;rounded=0;sketch=1;hachureGap=4;jiggle=2;curveFitting=1;orthogonalLoop=1;jettySize=auto;html=1;entryX=0.5;entryY=1;entryDx=0;entryDy=0;fontFamily=Architects Daughter;fontSource=https%3A%2F%2Ffonts.googleapis.com%2Fcss%3Ffamily%3DArchitects%2BDaughter;fontSize=16;" parent="1" source="mk_YrIzJI_6ENqU5XBet-54" target="enOVVRFEu1GshkFp2Plu-40" edge="1">
          <mxGeometry relative="1" as="geometry" />
        </mxCell>
        <mxCell id="mk_YrIzJI_6ENqU5XBet-54" value="&lt;font style=&quot;font-size: 14px;&quot;&gt;Картинка&lt;br&gt;(Объект)&lt;br&gt;&lt;/font&gt;" style="rounded=0;whiteSpace=wrap;html=1;fillColor=#fff2cc;strokeColor=#d6b656;" parent="1" vertex="1">
          <mxGeometry x="-245.5" y="341" width="120" height="60" as="geometry" />
        </mxCell>
        <mxCell id="yCtnSM6kdCkITJ4L6hRp-14" value="&lt;font style=&quot;font-size: 20px;&quot;&gt;Экспорт в pdf&lt;br&gt;&lt;/font&gt;" style="rounded=0;whiteSpace=wrap;html=1;fillColor=#d5e8d4;strokeColor=#82b366;" parent="1" vertex="1">
          <mxGeometry x="-137.5" y="-205" width="144" height="83" as="geometry" />
        </mxCell>
        <mxCell id="yCtnSM6kdCkITJ4L6hRp-17" value="Сохранение в json" style="rounded=0;whiteSpace=wrap;html=1;fillColor=#d5e8d4;strokeColor=#82b366;" parent="1" vertex="1">
          <mxGeometry x="324" y="-312" width="120" height="60" as="geometry" />
        </mxCell>
        <mxCell id="yCtnSM6kdCkITJ4L6hRp-22" value="Импорт из json" style="rounded=0;whiteSpace=wrap;html=1;fillColor=#d5e8d4;strokeColor=#82b366;" parent="1" vertex="1">
          <mxGeometry x="-125.5" y="-312" width="120" height="60" as="geometry" />
        </mxCell>
        <mxCell id="enOVVRFEu1GshkFp2Plu-5" value="Фон" style="rounded=0;whiteSpace=wrap;html=1;sketch=1;hachureGap=4;jiggle=2;curveFitting=1;fontFamily=Architects Daughter;fontSource=https%3A%2F%2Ffonts.googleapis.com%2Fcss%3Ffamily%3DArchitects%2BDaughter;fontSize=20;" parent="1" vertex="1">
          <mxGeometry x="480" y="309" width="104" height="43" as="geometry" />
        </mxCell>
        <mxCell id="enOVVRFEu1GshkFp2Plu-16" value="&lt;font style=&quot;font-size: 13px;&quot;&gt;Название&lt;/font&gt;" style="rounded=0;whiteSpace=wrap;html=1;hachureGap=4;fontFamily=Architects Daughter;fontSource=https%3A%2F%2Ffonts.googleapis.com%2Fcss%3Ffamily%3DArchitects%2BDaughter;fontSize=20;fillColor=#d5e8d4;strokeColor=#82b366;" parent="1" vertex="1">
          <mxGeometry x="230.5" y="-80" width="153.5" height="64" as="geometry" />
        </mxCell>
        <mxCell id="enOVVRFEu1GshkFp2Plu-22" value="&lt;font style=&quot;font-size: 13px;&quot;&gt;Прямоугольник&lt;/font&gt;" style="rounded=0;whiteSpace=wrap;html=1;sketch=1;hachureGap=4;jiggle=2;curveFitting=1;fontFamily=Architects Daughter;fontSource=https%3A%2F%2Ffonts.googleapis.com%2Fcss%3Ffamily%3DArchitects%2BDaughter;fontSize=20;" parent="1" vertex="1">
          <mxGeometry x="-318" y="785" width="120" height="60" as="geometry" />
        </mxCell>
        <mxCell id="enOVVRFEu1GshkFp2Plu-26" value="&lt;font style=&quot;font-size: 15px;&quot;&gt;Круг&lt;/font&gt;" style="ellipse;whiteSpace=wrap;html=1;aspect=fixed;sketch=1;hachureGap=4;jiggle=2;curveFitting=1;fontFamily=Architects Daughter;fontSource=https%3A%2F%2Ffonts.googleapis.com%2Fcss%3Ffamily%3DArchitects%2BDaughter;fontSize=20;" parent="1" vertex="1">
          <mxGeometry x="-105.5" y="785" width="80" height="80" as="geometry" />
        </mxCell>
        <mxCell id="enOVVRFEu1GshkFp2Plu-29" value="&lt;font style=&quot;font-size: 13px;&quot;&gt;Треугольник&lt;/font&gt;" style="triangle;whiteSpace=wrap;html=1;hachureGap=4;fontFamily=Architects Daughter;fontSource=https%3A%2F%2Ffonts.googleapis.com%2Fcss%3Ffamily%3DArchitects%2BDaughter;fontSize=20;rounded=0;shadow=1;sketch=1;curveFitting=1;jiggle=2;fillStyle=auto;labelBackgroundColor=none;" parent="1" vertex="1">
          <mxGeometry x="-449" y="785" width="112" height="80" as="geometry" />
        </mxCell>
        <mxCell id="enOVVRFEu1GshkFp2Plu-40" value="&lt;font style=&quot;font-size: 15px;&quot;&gt;Путь к картинке&lt;/font&gt;" style="rounded=0;whiteSpace=wrap;html=1;sketch=1;hachureGap=4;jiggle=2;curveFitting=1;fontFamily=Architects Daughter;fontSource=https%3A%2F%2Ffonts.googleapis.com%2Fcss%3Ffamily%3DArchitects%2BDaughter;fontSize=20;" parent="1" vertex="1">
          <mxGeometry x="-245.5" y="220" width="120" height="60" as="geometry" />
        </mxCell>
        <mxCell id="enOVVRFEu1GshkFp2Plu-53" value="Свойства объекта" style="swimlane;fontStyle=0;childLayout=stackLayout;horizontal=1;startSize=30;horizontalStack=0;resizeParent=1;resizeParentMax=0;resizeLast=0;collapsible=1;marginBottom=0;whiteSpace=wrap;html=1;sketch=1;hachureGap=4;jiggle=2;curveFitting=1;fontFamily=Architects Daughter;fontSource=https%3A%2F%2Ffonts.googleapis.com%2Fcss%3Ffamily%3DArchitects%2BDaughter;fontSize=20;" parent="1" vertex="1">
          <mxGeometry x="160" y="542" width="192" height="176" as="geometry" />
        </mxCell>
        <mxCell id="enOVVRFEu1GshkFp2Plu-54" value="Координаты(x,y)&lt;br&gt;Длина &lt;br&gt;Ширина&lt;br&gt;Тип(картинка, примитив, текст)" style="text;strokeColor=none;fillColor=none;align=left;verticalAlign=middle;spacingLeft=4;spacingRight=4;overflow=hidden;points=[[0,0.5],[1,0.5]];portConstraint=eastwest;rotatable=0;whiteSpace=wrap;html=1;fontSize=20;fontFamily=Architects Daughter;" parent="enOVVRFEu1GshkFp2Plu-53" vertex="1">
          <mxGeometry y="30" width="192" height="146" as="geometry" />
        </mxCell>
        <mxCell id="enOVVRFEu1GshkFp2Plu-63" value="текущее состояние" style="swimlane;fontStyle=0;childLayout=stackLayout;horizontal=1;startSize=30;horizontalStack=0;resizeParent=1;resizeParentMax=0;resizeLast=0;collapsible=1;marginBottom=0;whiteSpace=wrap;html=1;sketch=1;hachureGap=4;jiggle=2;curveFitting=1;fontFamily=Architects Daughter;fontSource=https%3A%2F%2Ffonts.googleapis.com%2Fcss%3Ffamily%3DArchitects%2BDaughter;fontSize=20;" parent="1" vertex="1">
          <mxGeometry x="-94" y="-80" width="176" height="150" as="geometry" />
        </mxCell>
        <mxCell id="enOVVRFEu1GshkFp2Plu-35" value="&lt;font style=&quot;font-size: 12px;&quot;&gt;Слайд с которым мы взаимодействуем&lt;/font&gt;" style="rounded=0;whiteSpace=wrap;html=1;sketch=1;hachureGap=4;jiggle=2;curveFitting=1;fontFamily=Architects Daughter;fontSource=https%3A%2F%2Ffonts.googleapis.com%2Fcss%3Ffamily%3DArchitects%2BDaughter;fontSize=20;fillColor=none;" parent="enOVVRFEu1GshkFp2Plu-63" vertex="1">
          <mxGeometry y="30" width="176" height="60" as="geometry" />
        </mxCell>
        <mxCell id="enOVVRFEu1GshkFp2Plu-61" value="&lt;font style=&quot;font-size: 14px;&quot;&gt;Объект с которым взаимодействуем&lt;/font&gt;" style="rounded=0;whiteSpace=wrap;html=1;sketch=1;hachureGap=4;jiggle=2;curveFitting=1;fontFamily=Architects Daughter;fontSource=https%3A%2F%2Ffonts.googleapis.com%2Fcss%3Ffamily%3DArchitects%2BDaughter;fontSize=20;fillColor=none;" parent="enOVVRFEu1GshkFp2Plu-63" vertex="1">
          <mxGeometry y="90" width="176" height="60" as="geometry" />
        </mxCell>
        <mxCell id="enOVVRFEu1GshkFp2Plu-69" value="&lt;font style=&quot;font-size: 15px;&quot;&gt;Взаимодействия&lt;/font&gt;" style="swimlane;fontStyle=0;childLayout=stackLayout;horizontal=1;startSize=32;horizontalStack=0;resizeParent=1;resizeParentMax=0;resizeLast=0;collapsible=1;marginBottom=0;whiteSpace=wrap;html=1;sketch=1;hachureGap=4;jiggle=2;curveFitting=1;fontFamily=Architects Daughter;fontSource=https%3A%2F%2Ffonts.googleapis.com%2Fcss%3Ffamily%3DArchitects%2BDaughter;fontSize=20;" parent="1" vertex="1">
          <mxGeometry x="218.5" y="12" width="229.5" height="176" as="geometry" />
        </mxCell>
        <mxCell id="enOVVRFEu1GshkFp2Plu-70" value="&lt;span style=&quot;font-size: 12px;&quot;&gt;Добавить слайд&lt;/span&gt;" style="rounded=0;whiteSpace=wrap;html=1;sketch=1;hachureGap=4;jiggle=2;curveFitting=1;fontFamily=Architects Daughter;fontSource=https%3A%2F%2Ffonts.googleapis.com%2Fcss%3Ffamily%3DArchitects%2BDaughter;fontSize=20;fillColor=none;" parent="enOVVRFEu1GshkFp2Plu-69" vertex="1">
          <mxGeometry y="32" width="229.5" height="48" as="geometry" />
        </mxCell>
        <mxCell id="enOVVRFEu1GshkFp2Plu-71" value="&lt;font style=&quot;font-size: 14px;&quot;&gt;Переместить слайд&lt;br&gt;&lt;/font&gt;" style="rounded=0;whiteSpace=wrap;html=1;sketch=1;hachureGap=4;jiggle=2;curveFitting=1;fontFamily=Architects Daughter;fontSource=https%3A%2F%2Ffonts.googleapis.com%2Fcss%3Ffamily%3DArchitects%2BDaughter;fontSize=20;fillColor=none;" parent="enOVVRFEu1GshkFp2Plu-69" vertex="1">
          <mxGeometry y="80" width="229.5" height="48" as="geometry" />
        </mxCell>
        <mxCell id="enOVVRFEu1GshkFp2Plu-72" value="&lt;font style=&quot;font-size: 14px;&quot;&gt;Удалить слайд&lt;br&gt;&lt;/font&gt;" style="rounded=0;whiteSpace=wrap;html=1;sketch=1;hachureGap=4;jiggle=2;curveFitting=1;fontFamily=Architects Daughter;fontSource=https%3A%2F%2Ffonts.googleapis.com%2Fcss%3Ffamily%3DArchitects%2BDaughter;fontSize=20;fillColor=none;" parent="enOVVRFEu1GshkFp2Plu-69" vertex="1">
          <mxGeometry y="128" width="229.5" height="48" as="geometry" />
        </mxCell>
        <mxCell id="enOVVRFEu1GshkFp2Plu-73" value="&lt;font style=&quot;font-size: 17px;&quot;&gt;Взаимодействия с текстом&lt;/font&gt;" style="swimlane;fontStyle=0;childLayout=stackLayout;horizontal=1;startSize=30;horizontalStack=0;resizeParent=1;resizeParentMax=0;resizeLast=0;collapsible=1;marginBottom=0;whiteSpace=wrap;html=1;sketch=1;hachureGap=4;jiggle=2;curveFitting=1;fontFamily=Architects Daughter;fontSource=https%3A%2F%2Ffonts.googleapis.com%2Fcss%3Ffamily%3DArchitects%2BDaughter;fontSize=20;" parent="1" vertex="1">
          <mxGeometry x="529.5" y="553.5" width="224" height="224" as="geometry" />
        </mxCell>
        <mxCell id="enOVVRFEu1GshkFp2Plu-74" value="Поменять цвет" style="text;strokeColor=none;fillColor=none;align=left;verticalAlign=middle;spacingLeft=4;spacingRight=4;overflow=hidden;points=[[0,0.5],[1,0.5]];portConstraint=eastwest;rotatable=0;whiteSpace=wrap;html=1;fontSize=20;fontFamily=Architects Daughter;" parent="enOVVRFEu1GshkFp2Plu-73" vertex="1">
          <mxGeometry y="30" width="224" height="30" as="geometry" />
        </mxCell>
        <mxCell id="enOVVRFEu1GshkFp2Plu-75" value="Поменять размер шрифта" style="text;strokeColor=none;fillColor=none;align=left;verticalAlign=middle;spacingLeft=4;spacingRight=4;overflow=hidden;points=[[0,0.5],[1,0.5]];portConstraint=eastwest;rotatable=0;whiteSpace=wrap;html=1;fontSize=20;fontFamily=Architects Daughter;" parent="enOVVRFEu1GshkFp2Plu-73" vertex="1">
          <mxGeometry y="60" width="224" height="68" as="geometry" />
        </mxCell>
        <mxCell id="enOVVRFEu1GshkFp2Plu-76" value="Поменять семейство шрифтов&lt;br&gt;Поменять значение" style="text;strokeColor=none;fillColor=none;align=left;verticalAlign=middle;spacingLeft=4;spacingRight=4;overflow=hidden;points=[[0,0.5],[1,0.5]];portConstraint=eastwest;rotatable=0;whiteSpace=wrap;html=1;fontSize=20;fontFamily=Architects Daughter;" parent="enOVVRFEu1GshkFp2Plu-73" vertex="1">
          <mxGeometry y="128" width="224" height="96" as="geometry" />
        </mxCell>
        <mxCell id="enOVVRFEu1GshkFp2Plu-77" value="Свойства текста" style="swimlane;fontStyle=0;childLayout=stackLayout;horizontal=1;startSize=30;horizontalStack=0;resizeParent=1;resizeParentMax=0;resizeLast=0;collapsible=1;marginBottom=0;whiteSpace=wrap;html=1;sketch=1;hachureGap=4;jiggle=2;curveFitting=1;fontFamily=Architects Daughter;fontSource=https%3A%2F%2Ffonts.googleapis.com%2Fcss%3Ffamily%3DArchitects%2BDaughter;fontSize=20;" parent="1" vertex="1">
          <mxGeometry x="385.5" y="553.5" width="144" height="252" as="geometry" />
        </mxCell>
        <mxCell id="enOVVRFEu1GshkFp2Plu-80" value="Значение" style="text;strokeColor=none;fillColor=none;align=left;verticalAlign=middle;spacingLeft=4;spacingRight=4;overflow=hidden;points=[[0,0.5],[1,0.5]];portConstraint=eastwest;rotatable=0;whiteSpace=wrap;html=1;fontSize=20;fontFamily=Architects Daughter;" parent="enOVVRFEu1GshkFp2Plu-77" vertex="1">
          <mxGeometry y="30" width="144" height="66" as="geometry" />
        </mxCell>
        <mxCell id="enOVVRFEu1GshkFp2Plu-78" value="Цвет(HEX)" style="text;strokeColor=none;fillColor=none;align=left;verticalAlign=middle;spacingLeft=4;spacingRight=4;overflow=hidden;points=[[0,0.5],[1,0.5]];portConstraint=eastwest;rotatable=0;whiteSpace=wrap;html=1;fontSize=20;fontFamily=Architects Daughter;" parent="enOVVRFEu1GshkFp2Plu-77" vertex="1">
          <mxGeometry y="96" width="144" height="30" as="geometry" />
        </mxCell>
        <mxCell id="enOVVRFEu1GshkFp2Plu-79" value="Размер шрифта" style="text;strokeColor=none;fillColor=none;align=left;verticalAlign=middle;spacingLeft=4;spacingRight=4;overflow=hidden;points=[[0,0.5],[1,0.5]];portConstraint=eastwest;rotatable=0;whiteSpace=wrap;html=1;fontSize=20;fontFamily=Architects Daughter;" parent="enOVVRFEu1GshkFp2Plu-77" vertex="1">
          <mxGeometry y="126" width="144" height="62" as="geometry" />
        </mxCell>
        <mxCell id="yJ3b80GRjbrO27rnjDYc-11" value="Семейство шрифтов&lt;br&gt;" style="text;strokeColor=none;fillColor=none;align=left;verticalAlign=middle;spacingLeft=4;spacingRight=4;overflow=hidden;points=[[0,0.5],[1,0.5]];portConstraint=eastwest;rotatable=0;whiteSpace=wrap;html=1;fontSize=20;fontFamily=Architects Daughter;" vertex="1" parent="enOVVRFEu1GshkFp2Plu-77">
          <mxGeometry y="188" width="144" height="64" as="geometry" />
        </mxCell>
        <mxCell id="enOVVRFEu1GshkFp2Plu-81" value="Свойства фона" style="swimlane;fontStyle=0;childLayout=stackLayout;horizontal=1;startSize=30;horizontalStack=0;resizeParent=1;resizeParentMax=0;resizeLast=0;collapsible=1;marginBottom=0;whiteSpace=wrap;html=1;sketch=1;hachureGap=4;jiggle=2;curveFitting=1;fontFamily=Architects Daughter;fontSource=https%3A%2F%2Ffonts.googleapis.com%2Fcss%3Ffamily%3DArchitects%2BDaughter;fontSize=20;" parent="1" vertex="1">
          <mxGeometry x="585" y="280" width="208" height="112" as="geometry" />
        </mxCell>
        <mxCell id="enOVVRFEu1GshkFp2Plu-82" value="Цвет(HEX)" style="text;strokeColor=none;fillColor=none;align=left;verticalAlign=middle;spacingLeft=4;spacingRight=4;overflow=hidden;points=[[0,0.5],[1,0.5]];portConstraint=eastwest;rotatable=0;whiteSpace=wrap;html=1;fontSize=20;fontFamily=Architects Daughter;" parent="enOVVRFEu1GshkFp2Plu-81" vertex="1">
          <mxGeometry y="30" width="208" height="30" as="geometry" />
        </mxCell>
        <mxCell id="enOVVRFEu1GshkFp2Plu-83" value="Путь к картинке если выбрали" style="text;strokeColor=none;fillColor=none;align=left;verticalAlign=middle;spacingLeft=4;spacingRight=4;overflow=hidden;points=[[0,0.5],[1,0.5]];portConstraint=eastwest;rotatable=0;whiteSpace=wrap;html=1;fontSize=20;fontFamily=Architects Daughter;" parent="enOVVRFEu1GshkFp2Plu-81" vertex="1">
          <mxGeometry y="60" width="208" height="52" as="geometry" />
        </mxCell>
        <mxCell id="enOVVRFEu1GshkFp2Plu-85" value="&lt;font style=&quot;font-size: 17px;&quot;&gt;Взаимодействия с фоном&lt;/font&gt;" style="swimlane;fontStyle=0;childLayout=stackLayout;horizontal=1;startSize=30;horizontalStack=0;resizeParent=1;resizeParentMax=0;resizeLast=0;collapsible=1;marginBottom=0;whiteSpace=wrap;html=1;sketch=1;hachureGap=4;jiggle=2;curveFitting=1;fontFamily=Architects Daughter;fontSource=https%3A%2F%2Ffonts.googleapis.com%2Fcss%3Ffamily%3DArchitects%2BDaughter;fontSize=20;" parent="1" vertex="1">
          <mxGeometry x="793" y="280" width="224" height="128" as="geometry" />
        </mxCell>
        <mxCell id="enOVVRFEu1GshkFp2Plu-86" value="Поменять цвет" style="text;strokeColor=none;fillColor=none;align=left;verticalAlign=middle;spacingLeft=4;spacingRight=4;overflow=hidden;points=[[0,0.5],[1,0.5]];portConstraint=eastwest;rotatable=0;whiteSpace=wrap;html=1;fontSize=20;fontFamily=Architects Daughter;" parent="enOVVRFEu1GshkFp2Plu-85" vertex="1">
          <mxGeometry y="30" width="224" height="30" as="geometry" />
        </mxCell>
        <mxCell id="enOVVRFEu1GshkFp2Plu-87" value="Поменять путь к картинке, если выбрали" style="text;strokeColor=none;fillColor=none;align=left;verticalAlign=middle;spacingLeft=4;spacingRight=4;overflow=hidden;points=[[0,0.5],[1,0.5]];portConstraint=eastwest;rotatable=0;whiteSpace=wrap;html=1;fontSize=20;fontFamily=Architects Daughter;" parent="enOVVRFEu1GshkFp2Plu-85" vertex="1">
          <mxGeometry y="60" width="224" height="68" as="geometry" />
        </mxCell>
        <mxCell id="enOVVRFEu1GshkFp2Plu-89" value="&lt;font style=&quot;font-size: 17px;&quot;&gt;Взаимодействия с примитивом&lt;/font&gt;" style="swimlane;fontStyle=0;childLayout=stackLayout;horizontal=1;startSize=30;horizontalStack=0;resizeParent=1;resizeParentMax=0;resizeLast=0;collapsible=1;marginBottom=0;whiteSpace=wrap;html=1;sketch=1;hachureGap=4;jiggle=2;curveFitting=1;fontFamily=Architects Daughter;fontSource=https%3A%2F%2Ffonts.googleapis.com%2Fcss%3Ffamily%3DArchitects%2BDaughter;fontSize=20;" parent="1" vertex="1">
          <mxGeometry x="-846" y="441.5" width="320" height="144" as="geometry" />
        </mxCell>
        <mxCell id="enOVVRFEu1GshkFp2Plu-90" value="Поменять цвет контура" style="text;strokeColor=none;fillColor=none;align=left;verticalAlign=middle;spacingLeft=4;spacingRight=4;overflow=hidden;points=[[0,0.5],[1,0.5]];portConstraint=eastwest;rotatable=0;whiteSpace=wrap;html=1;fontSize=20;fontFamily=Architects Daughter;" parent="enOVVRFEu1GshkFp2Plu-89" vertex="1">
          <mxGeometry y="30" width="320" height="30" as="geometry" />
        </mxCell>
        <mxCell id="enOVVRFEu1GshkFp2Plu-91" value="Поменять цвет заливки" style="text;strokeColor=none;fillColor=none;align=left;verticalAlign=middle;spacingLeft=4;spacingRight=4;overflow=hidden;points=[[0,0.5],[1,0.5]];portConstraint=eastwest;rotatable=0;whiteSpace=wrap;html=1;fontSize=20;fontFamily=Architects Daughter;" parent="enOVVRFEu1GshkFp2Plu-89" vertex="1">
          <mxGeometry y="60" width="320" height="52" as="geometry" />
        </mxCell>
        <mxCell id="enOVVRFEu1GshkFp2Plu-92" value="Поменять форму" style="text;strokeColor=none;fillColor=none;align=left;verticalAlign=middle;spacingLeft=4;spacingRight=4;overflow=hidden;points=[[0,0.5],[1,0.5]];portConstraint=eastwest;rotatable=0;whiteSpace=wrap;html=1;fontSize=20;fontFamily=Architects Daughter;" parent="enOVVRFEu1GshkFp2Plu-89" vertex="1">
          <mxGeometry y="112" width="320" height="32" as="geometry" />
        </mxCell>
        <mxCell id="enOVVRFEu1GshkFp2Plu-93" value="Свойства фона" style="swimlane;fontStyle=0;childLayout=stackLayout;horizontal=1;startSize=30;horizontalStack=0;resizeParent=1;resizeParentMax=0;resizeLast=0;collapsible=1;marginBottom=0;whiteSpace=wrap;html=1;sketch=1;hachureGap=4;jiggle=2;curveFitting=1;fontFamily=Architects Daughter;fontSource=https%3A%2F%2Ffonts.googleapis.com%2Fcss%3Ffamily%3DArchitects%2BDaughter;fontSize=20;" parent="1" vertex="1">
          <mxGeometry x="-526" y="441.5" width="208" height="112" as="geometry" />
        </mxCell>
        <mxCell id="enOVVRFEu1GshkFp2Plu-94" value="Цвет контура(HEX)" style="text;strokeColor=none;fillColor=none;align=left;verticalAlign=middle;spacingLeft=4;spacingRight=4;overflow=hidden;points=[[0,0.5],[1,0.5]];portConstraint=eastwest;rotatable=0;whiteSpace=wrap;html=1;fontSize=20;fontFamily=Architects Daughter;" parent="enOVVRFEu1GshkFp2Plu-93" vertex="1">
          <mxGeometry y="30" width="208" height="30" as="geometry" />
        </mxCell>
        <mxCell id="enOVVRFEu1GshkFp2Plu-95" value="Цвет заливки(HEX)" style="text;strokeColor=none;fillColor=none;align=left;verticalAlign=middle;spacingLeft=4;spacingRight=4;overflow=hidden;points=[[0,0.5],[1,0.5]];portConstraint=eastwest;rotatable=0;whiteSpace=wrap;html=1;fontSize=20;fontFamily=Architects Daughter;" parent="enOVVRFEu1GshkFp2Plu-93" vertex="1">
          <mxGeometry y="60" width="208" height="52" as="geometry" />
        </mxCell>
        <mxCell id="enOVVRFEu1GshkFp2Plu-97" value="&lt;font style=&quot;font-size: 18px;&quot;&gt;Взаимодействия с картинкой&lt;/font&gt;" style="swimlane;fontStyle=0;childLayout=stackLayout;horizontal=1;startSize=30;horizontalStack=0;resizeParent=1;resizeParentMax=0;resizeLast=0;collapsible=1;marginBottom=0;whiteSpace=wrap;html=1;sketch=1;hachureGap=4;jiggle=2;curveFitting=1;fontFamily=Architects Daughter;fontSource=https%3A%2F%2Ffonts.googleapis.com%2Fcss%3Ffamily%3DArchitects%2BDaughter;fontSize=20;" parent="1" vertex="1">
          <mxGeometry x="-495.5" y="305" width="250" height="96" as="geometry" />
        </mxCell>
        <mxCell id="enOVVRFEu1GshkFp2Plu-98" value="Изменить путь к картинке" style="text;strokeColor=none;fillColor=none;align=left;verticalAlign=middle;spacingLeft=4;spacingRight=4;overflow=hidden;points=[[0,0.5],[1,0.5]];portConstraint=eastwest;rotatable=0;whiteSpace=wrap;html=1;fontSize=20;fontFamily=Architects Daughter;labelBackgroundColor=none;" parent="enOVVRFEu1GshkFp2Plu-97" vertex="1">
          <mxGeometry y="30" width="250" height="66" as="geometry" />
        </mxCell>
        <mxCell id="enOVVRFEu1GshkFp2Plu-105" value="Взаимодействия" style="swimlane;fontStyle=0;childLayout=stackLayout;horizontal=1;startSize=30;horizontalStack=0;resizeParent=1;resizeParentMax=0;resizeLast=0;collapsible=1;marginBottom=0;whiteSpace=wrap;html=1;sketch=1;hachureGap=4;jiggle=2;curveFitting=1;fontFamily=Architects Daughter;fontSource=https%3A%2F%2Ffonts.googleapis.com%2Fcss%3Ffamily%3DArchitects%2BDaughter;fontSize=20;" parent="1" vertex="1">
          <mxGeometry x="-32" y="542" width="192" height="176" as="geometry" />
        </mxCell>
        <mxCell id="enOVVRFEu1GshkFp2Plu-106" value="Изменить координаты(x,y)&lt;br&gt;Изменить длину&lt;br&gt;Изменить ширину&lt;br&gt;" style="text;strokeColor=none;fillColor=none;align=left;verticalAlign=middle;spacingLeft=4;spacingRight=4;overflow=hidden;points=[[0,0.5],[1,0.5]];portConstraint=eastwest;rotatable=0;whiteSpace=wrap;html=1;fontSize=20;fontFamily=Architects Daughter;" parent="enOVVRFEu1GshkFp2Plu-105" vertex="1">
          <mxGeometry y="30" width="192" height="146" as="geometry" />
        </mxCell>
        <mxCell id="enOVVRFEu1GshkFp2Plu-111" value="взаимодействия" style="swimlane;fontStyle=0;childLayout=stackLayout;horizontal=1;startSize=30;horizontalStack=0;resizeParent=1;resizeParentMax=0;resizeLast=0;collapsible=1;marginBottom=0;whiteSpace=wrap;html=1;sketch=1;hachureGap=4;jiggle=2;curveFitting=1;fontFamily=Architects Daughter;fontSource=https%3A%2F%2Ffonts.googleapis.com%2Fcss%3Ffamily%3DArchitects%2BDaughter;fontSize=20;" parent="1" vertex="1">
          <mxGeometry x="-36" y="145" width="140" height="270" as="geometry" />
        </mxCell>
        <mxCell id="enOVVRFEu1GshkFp2Plu-110" value="Удалить объект" style="rounded=0;whiteSpace=wrap;html=1;sketch=1;hachureGap=4;jiggle=2;curveFitting=1;fontFamily=Architects Daughter;fontSource=https%3A%2F%2Ffonts.googleapis.com%2Fcss%3Ffamily%3DArchitects%2BDaughter;fontSize=20;fillColor=none;" parent="enOVVRFEu1GshkFp2Plu-111" vertex="1">
          <mxGeometry y="30" width="140" height="60" as="geometry" />
        </mxCell>
        <mxCell id="mk_YrIzJI_6ENqU5XBet-108" value="&lt;font style=&quot;font-size: 15px;&quot;&gt;Дублировать&lt;/font&gt;" style="whiteSpace=wrap;html=1;rounded=0;fontSize=15;labelBackgroundColor=none;fillColor=none;" parent="enOVVRFEu1GshkFp2Plu-111" vertex="1">
          <mxGeometry y="90" width="140" height="60" as="geometry" />
        </mxCell>
        <mxCell id="enOVVRFEu1GshkFp2Plu-117" value="&lt;font style=&quot;font-size: 15px;&quot;&gt;Изменить фон&lt;/font&gt;" style="whiteSpace=wrap;html=1;rounded=0;fontSize=15;fillColor=none;" parent="enOVVRFEu1GshkFp2Plu-111" vertex="1">
          <mxGeometry y="150" width="140" height="60" as="geometry" />
        </mxCell>
        <mxCell id="enOVVRFEu1GshkFp2Plu-123" value="&lt;font style=&quot;font-size: 15px;&quot;&gt;Добавить объект&lt;/font&gt;" style="whiteSpace=wrap;html=1;rounded=0;fontSize=15;fillColor=none;" parent="enOVVRFEu1GshkFp2Plu-111" vertex="1">
          <mxGeometry y="210" width="140" height="60" as="geometry" />
        </mxCell>
        <mxCell id="yJ3b80GRjbrO27rnjDYc-10" value="List Item" style="text;strokeColor=none;fillColor=none;align=left;verticalAlign=middle;spacingLeft=4;spacingRight=4;overflow=hidden;points=[[0,0.5],[1,0.5]];portConstraint=eastwest;rotatable=0;whiteSpace=wrap;html=1;fontSize=20;fontFamily=Architects Daughter;" vertex="1" parent="1">
          <mxGeometry x="176" y="640" width="80" height="30" as="geometry" />
        </mxCell>
      </root>
    </mxGraphModel>
  </diagram>
</mxfile>
